<svg xmlns="http://www.w3.org/2000/svg" viewBox="0 0 600 240" width="600" height="240" font-family="-apple-system, BlinkMacSystemFont, system-ui, sans-serif">
  <style>
    text { fill: #c0c0d0; }
    .label { font-size: 11px; }
    .title { font-size: 14px; font-weight: 600; fill: #e0e0f0; }
    .dim { font-size: 11px; }
  </style>

  <!-- Left: the problem -->
  <text x="140" y="18" text-anchor="middle" class="title">The Problem</text>

  <!-- Parent menu -->
  <rect x="30" y="30" width="120" height="28" rx="3" fill="#2a3a5c" stroke="#3a4a6c"/>
  <rect x="30" y="60" width="120" height="28" rx="3" fill="#533483" stroke="#7044a3"/>
  <rect x="30" y="90" width="120" height="28" rx="3" fill="#2a3a5c" stroke="#3a4a6c"/>
  <rect x="30" y="120" width="120" height="28" rx="3" fill="#2a3a5c" stroke="#3a4a6c"/>
  <text x="90" y="49" text-anchor="middle" class="label">Item A</text>
  <text x="90" y="79" text-anchor="middle" class="label" fill="#d0c0ff">Trigger ▸</text>
  <text x="90" y="109" text-anchor="middle" class="label">Item C</text>
  <text x="90" y="139" text-anchor="middle" class="label">Item D</text>

  <!-- Flyout -->
  <rect x="155" y="55" width="110" height="28" rx="3" fill="#2a3a5c" stroke="#3a4a6c"/>
  <rect x="155" y="85" width="110" height="28" rx="3" fill="#2a3a5c" stroke="#3a4a6c"/>
  <rect x="155" y="115" width="110" height="28" rx="3" fill="#e94560" opacity="0.3" stroke="#e94560"/>
  <text x="210" y="74" text-anchor="middle" class="label">Sub 1</text>
  <text x="210" y="104" text-anchor="middle" class="label">Sub 2</text>
  <text x="210" y="134" text-anchor="middle" class="label" fill="#e94560">Target</text>

  <!-- Mouse path crossing Item C — FAIL -->
  <line x1="85" y1="74" x2="200" y2="129" stroke="#e94560" stroke-width="2.5"/>
  <circle cx="85" cy="74" r="4" fill="#e94560"/>
  <text x="108" y="100" fill="#e94560" font-size="16" font-weight="bold">✕</text>
  <text x="30" y="170" class="dim" fill="#e94560">Crosses Item C → flyout closes</text>

  <!-- Right: the solution -->
  <text x="440" y="18" text-anchor="middle" class="title">The Solution</text>

  <!-- Parent menu -->
  <rect x="330" y="30" width="120" height="28" rx="3" fill="#2a3a5c" stroke="#3a4a6c"/>
  <rect x="330" y="60" width="120" height="28" rx="3" fill="#533483" stroke="#7044a3"/>
  <rect x="330" y="90" width="120" height="28" rx="3" fill="#2a3a5c" stroke="#3a4a6c"/>
  <rect x="330" y="120" width="120" height="28" rx="3" fill="#2a3a5c" stroke="#3a4a6c"/>
  <text x="390" y="49" text-anchor="middle" class="label">Item A</text>
  <text x="390" y="79" text-anchor="middle" class="label" fill="#d0c0ff">Trigger ▸</text>
  <text x="390" y="109" text-anchor="middle" class="label">Item C</text>
  <text x="390" y="139" text-anchor="middle" class="label">Item D</text>

  <!-- Flyout -->
  <rect x="455" y="35" width="130" height="28" rx="3" fill="#2a3a5c" stroke="#3a4a6c"/>
  <rect x="455" y="65" width="130" height="28" rx="3" fill="#2a3a5c" stroke="#3a4a6c"/>
  <rect x="455" y="95" width="130" height="28" rx="3" fill="#2a3a5c" stroke="#3a4a6c"/>
  <rect x="455" y="125" width="130" height="28" rx="3" fill="#e94560" opacity="0.3" stroke="#e94560"/>
  <text x="520" y="54" text-anchor="middle" class="label">Sub 1</text>
  <text x="520" y="84" text-anchor="middle" class="label">Sub 2</text>
  <text x="520" y="114" text-anchor="middle" class="label">Sub 3</text>
  <text x="520" y="144" text-anchor="middle" class="label" fill="#e94560">Target</text>

  <!-- Free travel zone: triangle from cursor to lower-left of flyout -->
  <polygon points="385,74 455,153 455,74" fill="#4ade80" opacity="0.12" stroke="#4ade80" stroke-width="1.5"/>

  <!-- Lower-left corner marker -->
  <circle cx="455" cy="153" r="4" fill="#4ade80"/>

  <!-- Mouse path — safe diagonal -->
  <line x1="385" y1="74" x2="510" y2="139" stroke="#4ade80" stroke-width="2.5"/>
  <circle cx="385" cy="74" r="4" fill="#4ade80"/>
  <text x="515" y="142" fill="#4ade80" font-size="14">✓</text>

  <!-- Labels -->
  <text x="420" y="108" class="label" fill="#4ade80">free zone</text>
  <text x="330" y="178" class="dim" fill="#4ade80">Mouse moving more horizontally</text>
  <text x="330" y="193" class="dim" fill="#4ade80">than vertically → protect flyout</text>
  <text x="330" y="215" class="dim" fill="#a0a0b0">Moving mostly down → switching</text>
  <text x="330" y="230" class="dim" fill="#a0a0b0">items, allow flyout to close</text>
</svg>
