<svg xmlns="http://www.w3.org/2000/svg" viewBox="0 0 600 220" width="600" height="220" font-family="-apple-system, BlinkMacSystemFont, system-ui, sans-serif">
  <style>
    text { fill: #c0c0d0; }
    .label { font-size: 11px; }
    .title { font-size: 14px; font-weight: 600; fill: #e0e0f0; }
    .dim { font-size: 11px; fill: #e94560; }
    .small { font-size: 10px; }
  </style>

  <!-- Left: the problem -->
  <text x="150" y="18" text-anchor="middle" class="title">The Diagonal Problem</text>

  <!-- Parent menu -->
  <rect x="30" y="30" width="120" height="28" rx="3" fill="#2a3a5c" stroke="#3a4a6c"/>
  <rect x="30" y="60" width="120" height="28" rx="3" fill="#533483" stroke="#7044a3"/>
  <rect x="30" y="90" width="120" height="28" rx="3" fill="#2a3a5c" stroke="#3a4a6c"/>
  <rect x="30" y="120" width="120" height="28" rx="3" fill="#2a3a5c" stroke="#3a4a6c"/>
  <text x="90" y="49" text-anchor="middle" class="label">Item A</text>
  <text x="90" y="79" text-anchor="middle" class="label" fill="#d0c0ff">Hovered ▸</text>
  <text x="90" y="109" text-anchor="middle" class="label">Item C</text>
  <text x="90" y="139" text-anchor="middle" class="label">Item D</text>

  <!-- Flyout -->
  <rect x="155" y="55" width="110" height="28" rx="3" fill="#2a3a5c" stroke="#3a4a6c"/>
  <rect x="155" y="85" width="110" height="28" rx="3" fill="#2a3a5c" stroke="#3a4a6c"/>
  <rect x="155" y="115" width="110" height="28" rx="3" fill="#e94560" opacity="0.3" stroke="#e94560"/>
  <text x="210" y="74" text-anchor="middle" class="label">Sub 1</text>
  <text x="210" y="104" text-anchor="middle" class="label">Sub 2</text>
  <text x="210" y="134" text-anchor="middle" class="label" fill="#e94560">Target</text>

  <!-- Diagonal path (problem) -->
  <line x1="85" y1="74" x2="200" y2="129" stroke="#e94560" stroke-width="2" stroke-dasharray="6,4"/>
  <!-- X mark where it crosses Item C -->
  <text x="108" y="100" fill="#e94560" font-size="16" font-weight="bold">✕</text>
  <text x="50" y="168" class="dim">Mouse crosses Item C</text>
  <text x="50" y="183" class="dim">→ flyout closes!</text>

  <!-- Right: the solution -->
  <text x="450" y="18" text-anchor="middle" class="title">Movement Direction Fix</text>

  <!-- Parent menu -->
  <rect x="330" y="30" width="120" height="28" rx="3" fill="#2a3a5c" stroke="#3a4a6c"/>
  <rect x="330" y="60" width="120" height="28" rx="3" fill="#533483" stroke="#7044a3"/>
  <rect x="330" y="90" width="120" height="28" rx="3" fill="#2a3a5c" stroke="#3a4a6c"/>
  <rect x="330" y="120" width="120" height="28" rx="3" fill="#2a3a5c" stroke="#3a4a6c"/>
  <text x="390" y="49" text-anchor="middle" class="label">Item A</text>
  <text x="390" y="79" text-anchor="middle" class="label" fill="#d0c0ff">Hovered ▸</text>
  <text x="390" y="109" text-anchor="middle" class="label">Item C</text>
  <text x="390" y="139" text-anchor="middle" class="label">Item D</text>

  <!-- Flyout -->
  <rect x="455" y="35" width="110" height="28" rx="3" fill="#2a3a5c" stroke="#3a4a6c"/>
  <rect x="455" y="65" width="110" height="28" rx="3" fill="#2a3a5c" stroke="#3a4a6c"/>
  <rect x="455" y="95" width="110" height="28" rx="3" fill="#2a3a5c" stroke="#3a4a6c"/>
  <rect x="455" y="125" width="110" height="28" rx="3" fill="#e94560" opacity="0.3" stroke="#e94560"/>
  <text x="510" y="54" text-anchor="middle" class="label">Sub 1</text>
  <text x="510" y="84" text-anchor="middle" class="label">Sub 2</text>
  <text x="510" y="114" text-anchor="middle" class="label">Sub 3</text>
  <text x="510" y="144" text-anchor="middle" class="label" fill="#e94560">Target</text>

  <!-- Diagonal path (success) — mostly horizontal -->
  <line x1="385" y1="74" x2="500" y2="139" stroke="#4ade80" stroke-width="2"/>
  <text x="505" y="139" fill="#4ade80" font-size="14">✓</text>

  <!-- dx/dy annotation on the diagonal -->
  <!-- Horizontal component -->
  <line x1="400" y1="88" x2="460" y2="88" stroke="#4ade80" stroke-width="1" stroke-dasharray="3,2"/>
  <text x="430" y="84" text-anchor="middle" class="small" fill="#4ade80">dx</text>
  <!-- Vertical component -->
  <line x1="460" y1="88" x2="460" y2="112" stroke="#e94560" stroke-width="1" stroke-dasharray="3,2"/>
  <text x="470" y="104" class="small" fill="#e94560">dy</text>

  <!-- Rule text -->
  <text x="380" y="175" class="label" fill="#4ade80">dx > dy → steering to flyout</text>
  <text x="380" y="190" class="label" fill="#4ade80">(suppress item switch)</text>

  <!-- Vertical movement example -->
  <line x1="375" y1="80" x2="375" y2="110" stroke="#e94560" stroke-width="1.5" stroke-dasharray="3,2"/>
  <text x="380" y="207" class="label" fill="#a0a0b0">dy > dx → switching items</text>
  <text x="380" y="220" class="label" fill="#a0a0b0">(allow flyout close)</text>
</svg>
